# xmcd CD database file
# Copyright (C) 1997 Ti Kan
# 
# Track frame offsets:
#     150
#     22517
#     35212
#     62910
#     85877
#     111452
#     135655
#     152215
#     174097
#     201310
#     228780
#     244510
#     269857
# 
# Disc length: 3842 seconds
# 
# Revision: 1
# Processed by: cddbd v1.4b41PL1 Copyright (c) Steve Scherf et al.
# Submitted via: DiscPlay 4.0.4
# 
DISCID=af0f000d
DTITLE=Big Time Sarah and the BTS Express - Blues in the Year One-D-One
DYEAR=1900
DGENRE=
TTITLE0=Blues in the Year One-D-One
TTITLE1=Hound Dog
TTITLE2=Ain't Nobody's Business
TTITLE3=Woke Up This Morning
TTITLE4=Long Tall Daddy
TTITLE5=You Don't Love Me Baby
TTITLE6=Cadillac Assembly Line
TTITLE7=Steal Away
TTITLE8=Chicken Heads
TTITLE9=Down Home Blues
TTITLE10=Bouncin' and Breakin'
TTITLE11=Little Red Rooster
TTITLE12=I Don't Wnat No Man
EXTD=
EXTT0=
EXTT1=
EXTT2=
EXTT3=
EXTT4=
EXTT5=
EXTT6=
EXTT7=
EXTT8=
EXTT9=
EXTT10=
EXTT11=
EXTT12=
PLAYORDER=
